<svg width="45" height="45" viewBox="0 0 45 45" fill="none" xmlns="http://www.w3.org/2000/svg">
<circle cx="22.5" cy="22.5" r="22.5" fill="#FFECD0"/>
<path d="M13.6666 15.739C13.8298 15.6731 14.0259 15.6002 14.2533 15.5267C15.0574 15.2668 16.2484 15 17.7499 
15C19.2514 15 20.4424 15.2668 21.2466 15.5267C21.4739 15.6002 21.6701 15.6731 21.8333 15.739V28.4317C20.8402 
 28.1232 19.4534 27.8333 17.7499 27.8333C16.0464 27.8333 14.6597 28.1232 13.6666 28.4317V15.739ZM22.9999
  13.6995C22.7366 13.5827 22.3892 13.4439 21.9642 13.3065C20.9637 12.9831 19.5297 12.6666 17.7499 12.6666C15.9702 12.6666
   14.5362 12.9831 13.5356 13.3065C13.0354 13.4682 12.6427 13.6319 12.368 13.7593C12.2305 13.823 12.1224 13.8778 12.0449 
   13.9188C12.0062 13.9393 11.9751 13.9564 11.9517 13.9695L11.9225 13.9861L11.9124 13.992L11.9084
    13.9944L11.9067 13.9954C11.9044 13.9967 11.6192 14.1657 11.9051 13.9963C11.5506 14.2064 11.3333 14.5879
     11.3333 15V30.1666C11.3333 30.5858 11.5581 30.9728 11.9223 31.1803C12.2863 31.3877 12.7335 31.384 13.094 31.1707C13.0908 
     31.1725 13.0888 31.1737 13.0888 31.1737L13.0904 31.1729L13.0922 31.1718L13.094 31.1707C13.1011 31.1667 13.1154 31.1589 13.1369 31.1475C13.1799 31.1248 13.2512 31.0884 13.3497 31.0427C13.5466 30.9514 13.8512 30.8234 14.2533 30.6934C15.0574 30.4335 16.2484 30.1666 17.7499 30.1666C19.2514 30.1666 20.4424 30.4335 21.2466 30.6934C21.6487 30.8234 21.9532 30.9514 22.1502 31.0427C22.2486 31.0884 22.32 31.1248 22.3629 31.1475C22.3844 31.1589 22.3988 31.1669 22.4059 31.1708C22.4091 31.1726 22.411 31.1737 22.411 31.1737M22.411 31.1737L22.4095 31.1729L22.4077 31.1718L22.4059 31.1708C22.7722 31.3872 23.2278 31.3873 23.594 31.1707C23.6011 31.1667 23.6154 31.1589 23.6369 31.1475C23.6799 31.1248 23.7512 31.0884 23.8497 31.0427C24.0466 30.9514 24.3512 30.8234 24.7533 30.6934C25.5574 30.4335 26.7484 30.1666 28.2499 30.1666C29.7514 30.1666 30.9424 30.4335 31.7466 30.6934C32.1487 30.8234 32.4532 30.9514 32.6502 31.0427C32.7486 31.0884 32.82 31.1248 32.8629 31.1475C32.8844 31.1589 32.8988 31.1669 32.9059 31.1708L32.9071 31.1715C33.2674 31.384 33.714 31.3874 34.0775 31.1803C34.4417 30.9728 34.6666 30.5858 34.6666 30.1666V15C34.6666 14.5879 34.4492 14.2064 34.0947 13.9963L34.0932 13.9954L34.0915 13.9944L34.0875 13.992L34.0773 13.9861L34.0481 13.9695C34.0248 13.9564 33.9937 13.9393 33.9549 13.9188C33.8774 13.8778 33.7693 13.823 33.6319 13.7593C33.3572 13.6319 32.9645 13.4682 32.4642 13.3065C31.4637 12.9831 30.0297 12.6666 28.2499 12.6666C26.4702 12.6666 25.0362 12.9831 24.0356 13.3065C23.6106 13.4439 23.2633 13.5827 22.9999 13.6995M32.3333 15.739V28.4317C31.3402 28.1232 29.9534 27.8333 28.2499 27.8333C26.5464 27.8333 25.1597 28.1232 24.1666 28.4317V15.739C24.3298 15.6731 24.5259 15.6002 24.7533 15.5267C25.5574 15.2668 26.7484 15 28.2499 15C29.7514 15 30.9424 15.2668 31.7466 15.5267C31.9739 15.6002 32.1701 15.6731 32.3333 15.739ZM32.9059 16.0042C32.9091 16.006 32.911 16.0071 32.911 16.0071L32.9095 16.0062L32.9059 16.0042ZM32.9059 31.1708L32.9098 31.173L32.9071 31.1715" 
      fill="#372329"/>
</svg>
